<?xml version="1.0" standalone="no"?>
<!DOCTYPE svg PUBLIC "-//W3C//DTD SVG 1.1//EN" "http://www.w3.org/Graphics/SVG/1.1/DTD/svg11.dtd" >
<svg xmlns="http://www.w3.org/2000/svg">
<metadata>
Created by FontForge 20120731 at Fri May  6 20:10:43 2016
 By admin
</metadata>
<defs>
<font id="iconfont" horiz-adv-x="1024" >
  <font-face 
    font-family="iconfont"
    font-weight="500"
    font-stretch="normal"
    units-per-em="1024"
    panose-1="2 0 6 3 0 0 0 0 0 0"
    ascent="896"
    descent="-128"
    x-height="792"
    bbox="0 -212 1177.08 896"
    underline-thickness="50"
    underline-position="-100"
    unicode-range="U+0078-E61A"
  />
<missing-glyph horiz-adv-x="374" 
d="M34 0v682h272v-682h-272zM68 34h204v614h-204v-614z" />
    <glyph glyph-name=".notdef" horiz-adv-x="374" 
d="M34 0v682h272v-682h-272zM68 34h204v614h-204v-614z" />
    <glyph glyph-name=".null" horiz-adv-x="0" 
 />
    <glyph glyph-name="nonmarkingreturn" horiz-adv-x="341" 
 />
    <glyph glyph-name="x" unicode="x" horiz-adv-x="1001" 
d="M281 543q-27 -1 -53 -1h-83q-18 0 -36.5 -6t-32.5 -18.5t-23 -32t-9 -45.5v-76h912v41q0 16 -0.5 30t-0.5 18q0 13 -5 29t-17 29.5t-31.5 22.5t-49.5 9h-133v-97h-438v97zM955 310v-52q0 -23 0.5 -52t0.5 -58t-10.5 -47.5t-26 -30t-33 -16t-31.5 -4.5q-14 -1 -29.5 -0.5
t-29.5 0.5h-32l-45 128h-439l-44 -128h-29h-34q-20 0 -45 1q-25 0 -41 9.5t-25.5 23t-13.5 29.5t-4 30v167h911zM163 247q-12 0 -21 -8.5t-9 -21.5t9 -21.5t21 -8.5q13 0 22 8.5t9 21.5t-9 21.5t-22 8.5zM316 123q-8 -26 -14 -48q-5 -19 -10.5 -37t-7.5 -25t-3 -15t1 -14.5
t9.5 -10.5t21.5 -4h37h67h81h80h64h36q23 0 34 12t2 38q-5 13 -9.5 30.5t-9.5 34.5q-5 19 -11 39h-368zM336 498v228q0 11 2.5 23t10 21.5t20.5 15.5t34 6h188q31 0 51.5 -14.5t20.5 -52.5v-227h-327z" />
    <glyph glyph-name="uniE600" unicode="&#xe600;" 
d="M512 864q-98 0 -186.5 -38t-153 -102.5t-102.5 -153t-38 -186.5t38 -186.5t102.5 -153t153 -102.5t186.5 -38t186.5 38t153 102.5t102.5 153t38 186.5t-38 186.5t-102.5 153t-153 102.5t-186.5 38zM467 145q-62 0 -118 18.5t-93 55t-37 83.5q0 78 89 166q55 56 112 78
t81 -2q22 -22 7 -69q-3 -10 5 -9q9 0 9 2q46 19 81.5 19t50.5 -20q15 -21 0 -59q-3 -7 -0.5 -9.5t9.5 -5.5q30 -9 51 -29.5t21 -51.5q0 -60 -77 -113.5t-191 -53.5zM689 456q7 20 -7.5 36t-35.5 12q-8 -2 -14.5 2.5t-8.5 12.5t2.5 14.5t12.5 8.5q43 9 72.5 -23.5t16.5 -74.5
q-3 -8 -10 -11.5t-15 -1t-11.5 9.5t-1.5 15zM803 419q-3 -9 -11.5 -13t-17 -1.5t-13 11t-1.5 17.5q9 27 3 56.5t-26.5 52t-49 31.5t-56.5 3q-9 -2 -17 3t-10 14.5t3 17t14 9.5q41 9 81 -3.5t68.5 -44.5t37 -73.5t-4.5 -79.5zM632.5 322q-4.5 48 -60 77t-129 21.5t-122 -46.5
t-43.5 -87t60 -77t128.5 -22t122 46.5t44 87.5zM530 269q-15 -34 -52.5 -49.5t-74.5 -3.5q-35 11 -48.5 41.5t2.5 61.5q15 31 50 46t70 6q36 -9 51.5 -39t1.5 -63zM430.5 303.5q-11.5 4.5 -24.5 0.5t-20 -15t-4 -22.5t14 -17t24.5 -1t20.5 16t4 23t-14.5 16zM467 319
q-10 4 -16 -6.5t4 -14.5q11 -4 17 6q6 11 -5 15z" />
    <glyph glyph-name="uniE601" unicode="&#xe601;" 
d="M721 807q-50 25 -104 38q-53 12 -107 12q-24 0 -49 -3q-8 -1 -17 -2q-29 -4 -58 -12q-153 -41 -252 -168.5t-99 -290.5t99 -290t252 -168q29 -8 58 -12q10 -2 17 -2q25 -3 49 -3q54 0 107 12q54 13 104 38q120 59 192 173.5t72 252t-72 252t-192 173.5zM450 314
q-8 -9 -18 -21q-11 -12 -23 -27q-13 -16 -25 -33q-13 -17 -24 -33q-16 -24 -29.5 -49.5t-23.5 -46.5q-12 -25 -23 -48l-65 2q9 28 23 58q12 25 29.5 56.5t42.5 62.5q13 17 27.5 34.5t29 32.5t26 27.5t20.5 20.5q-18 30 -18 66q0 26 10 49t27 40.5t40.5 27t49.5 9.5
q27 0 50.5 -9.5t40.5 -27t27 -40.5t10 -49.5t-10 -49.5t-27 -40.5t-40.5 -27.5t-50.5 -10q-22 0 -41 6.5t-35 19.5zM780 308q-22 -50 -59 -87.5t-87 -59t-108 -21.5h-8h-8h-2q-10 2 -16.5 9t-6.5 18q0 10 7.5 18t18.5 8q2 0 8 -1h7q46 0 87 17.5t71 48t47.5 71.5t17.5 86.5
t-17.5 86.5t-47.5 71t-71 47.5t-87 17.5t-86.5 -17.5t-70.5 -47.5t-48 -71t-18 -86q0 -48 19 -90q4 -6 4 -14q0 -11 -8 -18.5t-18 -7.5q-7 0 -12.5 3t-9.5 8q-13 27 -20 56.5t-7 62.5q0 56 22 106.5t59 87.5t87 59t107 22q58 0 108 -22t87 -59.5t59 -87.5t22 -106
q0 -58 -22 -108z" />
    <glyph glyph-name="uniE602" unicode="&#xe602;" 
d="M320 697l508 -507l-117 -117l-508 508zM204 580q-24 24 -24 58t24 58.5t58.5 24.5t58.5 -24zM827 191q24 -24 24 -58.5t-24.5 -58.5t-58.5 -24t-58 24zM826 580l-508 -508l-116 116l508 508zM709 695q24 24 58 24t58 -24t24 -58t-24 -58zM319 73q-24 -24 -58 -24t-58 24
t-24 58t24 58z" />
    <glyph glyph-name="uniE603" unicode="&#xe603;" 
d="M957 570q-36 86 -102.5 152.5t-152.5 103.5q-89 37 -187 37t-187 -37q-86 -37 -152.5 -103.5t-102.5 -152.5q-38 -89 -38 -187t38 -187q36 -86 102.5 -152.5t152.5 -102.5q89 -38 187 -38t187 38q86 36 152.5 102.5t102.5 152.5q38 89 38 187t-38 187zM515 -31
q-112 0 -207.5 55.5t-151 151t-55.5 207.5t55.5 207.5t151 151t207.5 55.5t207.5 -55.5t151 -151t55.5 -207.5t-55.5 -207.5t-151 -151t-207.5 -55.5zM665 585l-154 -155l-154 154q-10 10 -24.5 10t-24.5 -10t-10 -24t10 -24l155 -154l-154 -154q-10 -10 -10 -24t10 -24
t24 -10t24 10l154 154l154 -154q10 -10 24 -10t24 10t10 24t-10 24l-154 154l154 154q10 10 10 24.5t-10 24.5t-24 10t-24 -10z" />
    <glyph glyph-name="uniE604" unicode="&#xe604;" 
d="M611 206h-45q-6 4 -6 14v95l-51 -1v-106q0 -1 0.5 -2.5t3.5 -6.5t7 -8.5t12.5 -6.5t18.5 -3h86v127h-26v-102zM458 308h-48h-4q-4 0 -12 -2.5t-15.5 -7t-15.5 -14.5t-12 -24q-2 -10 -2 -18t1.5 -13.5t2.5 -9t3 -7.5l1 -3q2 -4 6.5 -9.5t17 -12t28.5 -6.5h75v191l-26 1
v-65zM458 206h-38q-2 0 -6 1t-12.5 8t-11.5 18q-3 12 3 29q2 7 8.5 14t16.5 7h40v-77zM512.5 864q-97.5 0 -186.5 -38t-153 -102t-102 -153t-38 -186.5t38 -186.5t102 -153t153 -102t186.5 -38t186.5 38t153 102t102 153t38 186.5t-38 186.5t-102 153t-153 102t-186.5 38z
M542 610q3 28 29 57t50 23q25 -6 43.5 -33.5t13.5 -56.5q-5 -33 -28 -59.5t-55 -22.5q-33 4 -45 29.5t-8 62.5zM443.5 706q26.5 0 45 -27t18.5 -64.5t-18.5 -64t-45 -26.5t-45.5 26.5t-19 64t19 64.5t45.5 27zM244 491q1 3 1.5 8t5 18t10 23.5t17 19.5t26.5 10
q28 2 49.5 -21t24.5 -46q11 -93 -53 -107q-30 -6 -50.5 11t-27 41t-3.5 43zM730 170q-10 -23 -30 -36t-42.5 -14t-43 0.5t-33.5 5.5l-13 4q-6 2 -15 3.5t-36.5 4t-50.5 -4.5q-24 -5 -49.5 -7t-38.5 -1h-14q-2 0 -6.5 0.5t-16.5 4.5t-22 11.5t-21 24t-16 39.5q-3 25 0 43.5
t15 35.5t22.5 26.5t21 17.5t11.5 9q1 2 15 13.5t31.5 30t29.5 38.5q11 18 30 30.5t42 17t48.5 -9.5t46.5 -45q19 -27 47.5 -56.5t48.5 -45.5l19 -16q2 -1 5.5 -4.5t11 -15.5t11.5 -25t3 -34.5t-11 -44.5zM719 357q-24 -1 -40 6.5t-22.5 21.5t-8 25.5t-1.5 28.5q0 88 63 88
q26 0 43.5 -15t23 -30.5t5.5 -27.5v-8q0 -7 -0.5 -11.5t-1 -13.5t-2 -14.5t-4.5 -14t-7.5 -14t-11 -10.5t-15.5 -8t-21 -3z" />
    <glyph glyph-name="uniE605" unicode="&#xe605;" 
d="M512 896q-139 0 -257 -68.5t-186.5 -186.5t-68.5 -257t68.5 -257t186.5 -186.5t257 -68.5t257 68.5t186.5 186.5t68.5 257t-68.5 257t-186.5 186.5t-257 68.5zM512 -99q-98 0 -187.5 38.5t-154 103t-103 154t-38.5 187.5t38.5 187.5t103 154t154 103t187.5 38.5
t187.5 -38.5t154 -103t103 -154t38.5 -187.5t-38.5 -187.5t-103 -154t-154 -103t-187.5 -38.5zM705 405q-14 8 -133 92t-125 88q-14 7 -25.5 0t-11.5 -21v-362q0 -14 12 -21t24 0t131.5 91.5t127.5 89.5q12 7 12 21t-12 22z" />
    <glyph glyph-name="uniE606" unicode="&#xe606;" horiz-adv-x="1294" 
d="M645 708q-90 0 -166 -42t-120.5 -114t-44.5 -158q0 -127 93 -218q42 -36 87 -58q29 -14 56 -25q47 -13 95 -13q91 0 167 42t120.5 114.5t44.5 158t-44.5 157.5t-120.5 114t-167 42zM465 331q52 -42 108.5 -57.5t100 -8t79 22t55 28.5t18.5 15q0 -3 -0.5 -9t-4 -22
t-9.5 -30.5t-19.5 -32.5t-32 -31t-48.5 -22t-66.5 -9t-66.5 8.5t-48.5 22.5t-32 30.5t-19.5 33t-9.5 30.5t-4.5 22v9zM645 806q-151 0 -268.5 -88.5t-152.5 -224.5q-5 -1 -13 -2.5t-28 -10.5t-35 -22t-26.5 -38t-10 -56t15.5 -55t31.5 -35.5t38 -18.5t30.5 -8t13 -1
q4 -1 8 -1t15.5 2.5t13.5 3.5q-30 68 -30 143q0 103 53.5 190t145 137.5t200 50.5t200 -50.5t145 -137.5t53.5 -190q0 -123 -76 -221t-195 -137q-6 -1 -10.5 -1t-7.5 1l-3 2q-27 4 -60 -5q-12 -3 -18 -13.5t-5 -21.5q2 -29 27 -33q60 -9 73 17q1 1 3 5.5t3.5 7t4 5.5t5.5 4
q92 30 161.5 93.5t104.5 148.5q5 0 13 1.5t29.5 10t38 20t30.5 35t15 54t-10 54.5t-27 36.5t-32.5 21.5t-28.5 11l-12 3q-35 136 -152.5 224.5t-269.5 88.5z" />
    <glyph glyph-name="uniE607" unicode="&#xe607;" 
d="M512 820q-91 0 -174 -35.5t-143 -95.5t-95.5 -143t-35.5 -174t35.5 -174t95.5 -143t143 -95t174 -35t174 35t143 95t95.5 143t35.5 174t-35.5 174t-95.5 143t-143 95.5t-174 35.5zM765 206q-10 -20 -30 -39q-49 -45 -92 -40q-41 5 -113 45.5t-128.5 94t-99 122
t-47.5 107.5q-3 22 10.5 46.5t37.5 44.5q26 21 43 28q14 6 27 0l7 -3q17 -8 36 -33q13 -18 23 -34l19 -37l2 -5q5 -13 -6 -23l-1 -1l-2 -2l-2 -2q-6 -4 -10.5 -6t-7.5 -5q-6 -3 -17.5 -7.5t-18.5 -8.5q-11 -5 -14.5 -18t0.5 -20q19 -42 73 -93q38 -36 93 -67q16 -7 29 -1.5
t20 17.5q3 6 8 15.5t6 12.5l14 21q4 7 12 10q11 3 19 -1l12 -6l26 -17q20 -12 43 -32l22 -20l6 -7l2 -3q9 -12 -1 -33z" />
    <glyph glyph-name="uniE608" unicode="&#xe608;" horiz-adv-x="1025" 
d="M575 385q-8 0 -15 -7t-7 -16q0 -8 7 -14t15 -6q12 0 20 6t8 14q0 9 -8 16t-20 7v0zM503 490q13 0 20.5 7.5t7.5 19.5q0 13 -7.5 20.5t-20.5 7.5t-22.5 -7.5t-9.5 -20.5q0 -12 9.5 -19.5t22.5 -7.5v0zM512 864q-98 0 -186.5 -38t-153 -102.5t-102.5 -153t-38 -186
t38 -186.5t102.5 -153t153 -102t186 -38t186.5 38t153 102t102 153t38 186.5t-38 186t-102 153t-153 102.5t-186 38v0zM421 263q-33 0 -77 12l-79 -40l23 67q-89 63 -89 149q0 79 65 133t157 54q82 0 145.5 -43.5t77.5 -110.5q-12 2 -21 2q-79 0 -134 -51.5t-55 -124.5
q0 -22 7 -47h-20v0zM747 186l16 -56l-60 33q-4 -1 -20 -4.5t-26.5 -5t-20.5 -1.5q-78 0 -132.5 47t-54.5 114t54.5 114t132.5 47q75 0 131.5 -47.5t56.5 -113.5q0 -70 -77 -127v0v0zM349 545q-14 0 -24 -7.5t-10 -20.5q0 -11 10.5 -19t23.5 -8q11 0 19.5 7.5t8.5 19.5
q0 13 -8 20.5t-20 7.5v0zM698 385q-9 0 -15.5 -7t-6.5 -16q0 -8 6.5 -14t15.5 -6q11 0 19 6t8 14q0 9 -8 16t-19 7v0zM698 385z" />
    <glyph glyph-name="uniE609" unicode="&#xe609;" 
d="M512 350l-253 253q-19 19 -46 19t-46 -19l-23 -23q-19 -19 -19 -46t19 -46l298 -298q0 -1 1 -2l23 -23q19 -19 46 -19t46 19l23 23q1 0 1 1v1l298 298q19 19 19 46t-19 46l-23 23q-19 19 -46 19t-46 -19z" />
    <glyph glyph-name="uniE60A" unicode="&#xe60a;" 
d="M384 130l252 254l-251 251z" />
    <glyph glyph-name="uniE60B" unicode="&#xe60b;" 
d="M600 668h-225q-76 0 -136 -49.5t-60 -114.5q0 -70 48 -117t124 -47q12 0 20 1q-9 -18 -9 -45q0 -32 29 -59q-7 0 -20.5 0.5t-20.5 0.5q-91 0 -155 -50t-64 -114q0 -59 66.5 -95.5t163.5 -36.5q101 0 161 48.5t60 113.5q0 50 -17.5 82.5t-61.5 63.5q-20 14 -39.5 35.5
t-19.5 34.5q0 19 8.5 31.5t34.5 33.5q64 49 64 117q0 44 -19 80.5t-54 49.5h72zM521 118q3 -11 3 -23q0 -53 -39 -85t-125 -32q-63 0 -105.5 35t-42.5 85q0 48 49 83t114 34q30 0 56 -9q6 -4 19 -13t18 -13l15 -10q10 -7 14 -12t10 -11.5t9 -13.5t5 -15zM383.5 363
q-43.5 1 -79.5 42.5t-43.5 98.5t17.5 95.5t69 37t79.5 -41.5t43.5 -97q7 -57 -18 -96.5t-68.5 -38.5zM815 528v140h-30v-139h-142v-29h142v-172h30v172l144 1v28z" />
    <glyph glyph-name="uniE60C" unicode="&#xe60c;" 
d="M512.5 809q-103.5 0 -198 -40.5t-162.5 -108.5t-108 -162.5t-40 -198t40 -198t108 -162.5t162.5 -108.5t198 -40.5t197.5 40.5t162 108.5t108.5 162.5t40.5 198t-40.5 198t-108.5 162.5t-162 108.5t-197.5 40.5zM658 284h-105v-377h-157v377h-74v134h74v86q0 26 7 51
t23.5 50.5t49 41t78.5 15.5h116v-130h-84q-13 0 -23 -8t-10 -28v-78h119z" />
    <glyph glyph-name="uniE60D" unicode="&#xe60d;" 
d="M410 532q-30 1 -48 -26t-13 -67q6 -39 30.5 -65t55.5 -27t46.5 23t10.5 64t-28.5 68.5t-53.5 29.5zM427 238q-45 1 -78 -24t-33 -59q0 -35 29.5 -59.5t74.5 -24.5q114 0 114 82q0 8 -2 16q-2 6 -5.5 12t-7 10.5t-11 10.5t-11.5 9t-15 10.5t-16 10.5q-18 6 -39 6z
M513.5 812q-103.5 0 -198 -40.5t-163 -109t-108.5 -163t-40 -198.5t40 -198.5t108.5 -163t163 -109t198 -40.5t198 40.5t163 109t109 163t40.5 198.5t-40.5 198.5t-109 163t-163 109t-198 40.5zM553 436q0 -46 -45 -80q-18 -15 -24 -24t-6 -21q0 -14 44 -47q36 -26 47.5 -48
t11.5 -57q0 -45 -45 -79t-116 -34q-68 0 -114.5 25.5t-46.5 66.5q0 46 42.5 82t105.5 36h14h14q-22 21 -22 40q0 14 8 29q-10 -1 -15 -1q-52 0 -82.5 32.5t-30.5 81.5q0 47 41.5 83t98.5 36h150l-34 -36h-39q43 -24 43 -85zM768 445h-69v-69h-35v69h-69v35h69v70h35v-70h69
v-35z" />
    <glyph glyph-name="uniE60E" unicode="&#xe60e;" 
d="M511 -212q-104 0 -198.5 40.5t-163 109t-109 163.5t-40.5 200q0 104 40.5 198.5t109 163t163 109t198.5 40.5t198.5 -40.5t163 -109t109 -163t40.5 -198.5q1 -105 -39.5 -200t-109 -163.5t-163 -109t-199.5 -40.5zM769 435q-26 -14 -59 -17q32 19 47 58q-31 -20 -67 -25
q-18 20 -45 28.5t-56 2.5q-34 -9 -56.5 -34.5t-25.5 -59.5q0 -22 2 -33q-63 3 -119.5 32.5t-96.5 77.5q-15 -26 -15 -52q0 -27 12.5 -50t34.5 -37q-25 0 -47 13v-2q0 -38 24 -67t61 -36q-18 -4 -27 -4q-13 0 -20 2q10 -31 37 -51.5t61 -20.5q-57 -45 -130 -45q-17 0 -26 2
q77 -47 161 -47q70 0 128 27t94.5 70.5t57 96t20.5 106.5v14q28 17 50 51z" />
    <glyph glyph-name="uniE60F" unicode="&#xe60f;" 
d="M146 457v-146h293v-293h146v293h293v146h-293v293h-146v-293h-293z" />
    <glyph glyph-name="uniE610" unicode="&#xe610;" 
d="M65 750h244v-244h-244v244zM391 750h244v-244h-244v244zM716 750h245v-244h-245v244zM65 424h244v-245h-244v245zM391 424h244v-245h-244v245zM716 424h245v-245h-245v245zM65 98h244v-245h-244v245zM391 98h244v-245h-244v245zM716 98h245v-245h-245v245z" />
    <glyph glyph-name="uniE611" unicode="&#xe611;" 
d="M91 777q0 11 8.5 19.5t19.5 8.5h155q11 0 19.5 -8.5t8.5 -19.5v-155q0 -11 -8.5 -19.5t-19.5 -8.5h-155q-11 0 -19.5 8.5t-8.5 19.5v155zM407 777q0 11 8 19.5t20 8.5h154q12 0 20 -8.5t8 -19.5v-155q0 -11 -8 -19.5t-20 -8.5h-154q-12 0 -20 8.5t-8 19.5v155zM722 777
q0 11 8.5 19.5t19.5 8.5h155q11 0 19.5 -8.5t8.5 -19.5v-155q0 -11 -8.5 -19.5t-19.5 -8.5h-155q-11 0 -19.5 8.5t-8.5 19.5v155zM91 461q0 12 8.5 20t19.5 8h155q11 0 19.5 -8t8.5 -20v-154q0 -12 -8.5 -20t-19.5 -8h-155q-11 0 -19.5 8t-8.5 20v154zM407 461q0 12 8 20
t20 8h154q12 0 20 -8t8 -20v-154q0 -12 -8 -20t-20 -8h-154q-12 0 -20 8t-8 20v154zM722 461q0 12 8.5 20t19.5 8h155q11 0 19.5 -8t8.5 -20v-154q0 -12 -8.5 -20t-19.5 -8h-155q-11 0 -19.5 8t-8.5 20v154zM91 146q0 11 8.5 19.5t19.5 8.5h155q11 0 19.5 -8.5t8.5 -19.5
v-155q0 -11 -8.5 -19.5t-19.5 -8.5h-155q-11 0 -19.5 8.5t-8.5 19.5v155zM407 146q0 11 8 19.5t20 8.5h154q12 0 20 -8.5t8 -19.5v-155q0 -11 -8 -19.5t-20 -8.5h-154q-12 0 -20 8.5t-8 19.5v155zM722 146q0 11 8.5 19.5t19.5 8.5h155q11 0 19.5 -8.5t8.5 -19.5v-155
q0 -11 -8.5 -19.5t-19.5 -8.5h-155q-11 0 -19.5 8.5t-8.5 19.5v155z" />
    <glyph glyph-name="uniE612" unicode="&#xe612;" 
d="M634 384q0 -51 -36 -86.5t-86 -35.5q-51 0 -86.5 36t-35.5 86q0 23 9 47h-67v-184q0 -17 13 -30t30 -13h276q17 0 30 13t13 30v184h-67q7 -19 7 -47zM685 481v76h-76v-76h76zM512 305q32 0 55.5 23.5t23.5 55.5q0 24 -14 47q-24 32 -65 32t-65 -32q-14 -20 -14 -47
q0 -32 23.5 -55.5t55.5 -23.5zM512 834q-186 0 -318 -132t-132 -318t132 -318t318 -132t318 132t132 318t-132 318t-318 132zM737 431v-184q0 -36 -25.5 -61t-60.5 -25h-278q-36 0 -61 25.5t-25 60.5v276q0 36 25.5 61t60.5 25h276q36 0 61 -25.5t25 -60.5v-92h2z" />
    <glyph glyph-name="uniE613" unicode="&#xe613;" 
d="M832 768h-640q-79 0 -135.5 -56.5t-56.5 -135.5v-384q0 -79 56.5 -135.5t135.5 -56.5h640q79 0 135.5 56.5t56.5 135.5v384q0 79 -56.5 135.5t-135.5 56.5zM384 128v512l320 -256z" />
    <glyph glyph-name="uniE614" unicode="&#xe614;" 
d="M75 759v-125h871v125h-871zM75 323h871v125h-871v-125zM75 12h871v124h-871v-124z" />
    <glyph glyph-name="uniE615" unicode="&#xe615;" 
d="M512 418l253 -253q19 -19 46 -19t46 19l23 23q19 19 19 46t-19 46l-298 298q0 1 -1 2l-23 23q-19 19 -46 19t-46 -19l-23 -23q-1 0 -1 -1v-1l-298 -298q-19 -19 -19 -46t19 -46l23 -23q19 -19 46 -19t46 19z" />
    <glyph glyph-name="uniE616" unicode="&#xe616;" 
d="M478 384l253 253q19 19 19 46t-19 46l-23 23q-19 19 -46 19t-46 -19l-298 -298q-1 0 -2 -1l-23 -23q-19 -19 -19 -46t19 -46l23 -23q0 -1 1 -1h1l298 -298q19 -19 46 -19t46 19l23 23q19 19 19 46t-19 46z" />
    <glyph glyph-name="uniE617" unicode="&#xe617;" 
d="M546 384l-253 -253q-19 -19 -19 -46t19 -46l23 -23q19 -19 46 -19t46 19l298 298q1 0 2 1l23 23q19 19 19 46t-19 46l-23 23q0 1 -1 1h-1l-298 298q-19 19 -46 19t-46 -19l-23 -23q-19 -19 -19 -46t19 -46z" />
    <glyph glyph-name="uniE618" unicode="&#xe618;" horiz-adv-x="1025" 
d="M276 781q-114 0 -195 -81t-81 -195q0 -67 31 -126q4 -9 14 -12t19 2q9 4 12 14t-2 19q-25 48 -25 103q0 94 66.5 160.5t160.5 66.5t160.5 -66.5t66.5 -160.5t-66.5 -160t-160.5 -66q-26 0 -51 5q-10 3 -18.5 -2.5t-10.5 -15.5t3 -18.5t15 -11.5q31 -6 62 -6
q114 0 195 80.5t81 194.5t-81 195t-195 81zM228 435q24 -16 52 -16q38 0 64.5 26.5t26.5 64.5t-26.5 64.5t-64.5 26.5t-64.5 -26.5t-26.5 -64.5q0 -19 8 -36q-34 -36 -63 -78q-52 -78 -85 -196t-20 -259q1 -11 8.5 -24t15.5 -13h3q9 0 16 15t6 26q-22 238 96 414
q42 63 54 76zM788 578q-30 -1 -59 12q-48 23 -66 73.5t5 98.5t73 65.5t98 -4.5q49 -23 66.5 -73.5t-5.5 -97.5q-6 -14 -15 -25t2 -20t20 2q10 13 19 31q27 58 5.5 119t-80 89t-119.5 6t-89 -80.5t-6 -119.5t80 -89q34 -16 72 -15q6 0 10 4.5t3.5 10t-4.5 9.5t-10 4z
M1015 472q-124 46 -185 148q-12 21 -22 45q14 8 21 23q9 19 2 39t-26.5 29.5t-39.5 2t-29 -26.5t-2 -39.5t27 -29.5q10 -5 20 -5q10 -26 24 -51q67 -111 201 -161q11 -4 17 7v1l1 1q4 12 -9 17z" />
    <glyph glyph-name="uniE619" unicode="&#xe619;" 
d="M347 -82q-11 0 -19 7t-8 17t8 17l376 343l-376 343q-8 7 -8 17t8 17t18.5 7t18.5 -7l395 -360q7 -7 7 -17t-7 -17l-395 -360q-8 -7 -18 -7z" />
    <glyph glyph-name="uniE61A" unicode="&#xe61a;" 
d="M130 549q0 11 7 19t17 8t17 -8l343 -376l343 376q7 8 17 8t17 -8t7 -18.5t-7 -18.5l-360 -395q-7 -7 -17 -7t-17 7l-360 395q-7 8 -7 18z" />
  </font>
</defs>
</svg>
